<?xml version="1.0" encoding="UTF-8" standalone="no"?>
<!DOCTYPE svg PUBLIC "-//W3C//DTD SVG 1.1//EN"
 "http://www.w3.org/Graphics/SVG/1.1/DTD/svg11.dtd">
<!-- Generated by graphviz version 2.47.0 (20210316.0004)
 -->
<!-- Title: dbml Pages: 1 -->
<svg width="1930pt" height="1226pt"
 viewBox="0.00 0.00 1929.79 1225.63" xmlns="http://www.w3.org/2000/svg" xmlns:xlink="http://www.w3.org/1999/xlink">
<g id="graph0" class="graph" transform="scale(1 1) rotate(0) translate(4 1221.63)">
<title>dbml</title>
<!-- BookCategories -->
<g id="BookCategories" class="node">
<title>BookCategories</title>
<ellipse fill="none" stroke="black" stroke-width="0" cx="338" cy="-462.24" rx="337.99" ry="172.57"/>
<polygon fill="#1d71b8" stroke="transparent" points="101,-522.24 101,-582.24 575,-582.24 575,-522.24 101,-522.24"/>
<polygon fill="none" stroke="#29235c" points="101,-522.24 101,-582.24 575,-582.24 575,-522.24 101,-522.24"/>
<text text-anchor="start" x="161.94" y="-543.44" font-family="Helvetica,sans-Serif" font-weight="bold" font-size="32.00" fill="#ffffff"> &#160;&#160;&#160;&#160;&#160;&#160;BookCategories &#160;&#160;&#160;&#160;&#160;&#160;</text>
<polygon fill="#e7e2dd" stroke="transparent" points="101,-462.24 101,-522.24 575,-522.24 575,-462.24 101,-462.24"/>
<polygon fill="none" stroke="#29235c" points="101,-462.24 101,-522.24 575,-522.24 575,-462.24 101,-462.24"/>
<text text-anchor="start" x="112" y="-483.44" font-family="Helvetica,sans-Serif" font-weight="bold" font-size="32.00" fill="#29235c">CategoryID</text>
<text text-anchor="start" x="273.79" y="-483.44" font-family="Helvetica,sans-Serif" font-size="32.00" fill="#29235c"> &#160;&#160;&#160;</text>
<text text-anchor="start" x="530.21" y="-483.44" font-family="Helvetica,sans-Serif" font-style="italic" font-size="32.00" fill="#29235c">int</text>
<polygon fill="#e7e2dd" stroke="transparent" points="101,-402.24 101,-462.24 575,-462.24 575,-402.24 101,-402.24"/>
<polygon fill="none" stroke="#29235c" points="101,-402.24 101,-462.24 575,-462.24 575,-402.24 101,-402.24"/>
<text text-anchor="start" x="111.65" y="-422.44" font-family="Helvetica,sans-Serif" font-size="32.00" fill="#29235c">CategoryName &#160;&#160;&#160;</text>
<text text-anchor="start" x="361.67" y="-423.44" font-family="Helvetica,sans-Serif" font-style="italic" font-size="32.00" fill="#29235c">varchar(50)</text>
<text text-anchor="start" x="525.23" y="-423.44" font-family="Helvetica,sans-Serif" font-size="32.00" fill="#29235c"> </text>
<text text-anchor="start" x="534.12" y="-423.44" font-family="Helvetica,sans-Serif" font-weight="bold" font-size="32.00" fill="#29235c">(!)</text>
<polygon fill="#e7e2dd" stroke="transparent" points="101,-342.24 101,-402.24 575,-402.24 575,-342.24 101,-342.24"/>
<polygon fill="none" stroke="#29235c" points="101,-342.24 101,-402.24 575,-402.24 575,-342.24 101,-342.24"/>
<text text-anchor="start" x="112" y="-362.44" font-family="Helvetica,sans-Serif" font-size="32.00" fill="#29235c">Description &#160;&#160;&#160;</text>
<text text-anchor="start" x="512.42" y="-363.44" font-family="Helvetica,sans-Serif" font-style="italic" font-size="32.00" fill="#29235c">text</text>
<polygon fill="none" stroke="#29235c" stroke-width="2" points="100,-341.24 100,-583.24 576,-583.24 576,-341.24 100,-341.24"/>
</g>
<!-- Books -->
<g id="Books" class="node">
<title>Books</title>
<ellipse fill="none" stroke="black" stroke-width="0" cx="1016.05" cy="-342.24" rx="265.33" ry="342.48"/>
<polygon fill="#1d71b8" stroke="transparent" points="831.05,-522.24 831.05,-582.24 1202.05,-582.24 1202.05,-522.24 831.05,-522.24"/>
<polygon fill="none" stroke="#29235c" points="831.05,-522.24 831.05,-582.24 1202.05,-582.24 1202.05,-522.24 831.05,-522.24"/>
<text text-anchor="start" x="909.84" y="-543.44" font-family="Helvetica,sans-Serif" font-weight="bold" font-size="32.00" fill="#ffffff"> &#160;&#160;&#160;&#160;&#160;&#160;Books &#160;&#160;&#160;&#160;&#160;&#160;</text>
<polygon fill="#e7e2dd" stroke="transparent" points="831.05,-462.24 831.05,-522.24 1202.05,-522.24 1202.05,-462.24 831.05,-462.24"/>
<polygon fill="none" stroke="#29235c" points="831.05,-462.24 831.05,-522.24 1202.05,-522.24 1202.05,-462.24 831.05,-462.24"/>
<text text-anchor="start" x="842.05" y="-483.44" font-family="Helvetica,sans-Serif" font-weight="bold" font-size="32.00" fill="#29235c">BookID</text>
<text text-anchor="start" x="946.96" y="-483.44" font-family="Helvetica,sans-Serif" font-size="32.00" fill="#29235c"> &#160;&#160;&#160;</text>
<text text-anchor="start" x="1157.27" y="-483.44" font-family="Helvetica,sans-Serif" font-style="italic" font-size="32.00" fill="#29235c">int</text>
<polygon fill="#e7e2dd" stroke="transparent" points="831.05,-402.24 831.05,-462.24 1202.05,-462.24 1202.05,-402.24 831.05,-402.24"/>
<polygon fill="none" stroke="#29235c" points="831.05,-402.24 831.05,-462.24 1202.05,-462.24 1202.05,-402.24 831.05,-402.24"/>
<text text-anchor="start" x="842.05" y="-422.44" font-family="Helvetica,sans-Serif" font-size="32.00" fill="#29235c">Title &#160;&#160;&#160;</text>
<text text-anchor="start" x="970.61" y="-423.44" font-family="Helvetica,sans-Serif" font-style="italic" font-size="32.00" fill="#29235c">varchar(100)</text>
<text text-anchor="start" x="1151.96" y="-423.44" font-family="Helvetica,sans-Serif" font-size="32.00" fill="#29235c"> </text>
<text text-anchor="start" x="1160.85" y="-423.44" font-family="Helvetica,sans-Serif" font-weight="bold" font-size="32.00" fill="#29235c">(!)</text>
<polygon fill="#e7e2dd" stroke="transparent" points="831.05,-342.24 831.05,-402.24 1202.05,-402.24 1202.05,-342.24 831.05,-342.24"/>
<polygon fill="none" stroke="#29235c" points="831.05,-342.24 831.05,-402.24 1202.05,-402.24 1202.05,-342.24 831.05,-342.24"/>
<text text-anchor="start" x="841.64" y="-362.44" font-family="Helvetica,sans-Serif" font-size="32.00" fill="#29235c">Author &#160;&#160;&#160;</text>
<text text-anchor="start" x="970.83" y="-363.44" font-family="Helvetica,sans-Serif" font-style="italic" font-size="32.00" fill="#29235c">varchar(100)</text>
<text text-anchor="start" x="1152.18" y="-363.44" font-family="Helvetica,sans-Serif" font-size="32.00" fill="#29235c"> </text>
<text text-anchor="start" x="1161.07" y="-363.44" font-family="Helvetica,sans-Serif" font-weight="bold" font-size="32.00" fill="#29235c">(!)</text>
<polygon fill="#e7e2dd" stroke="transparent" points="831.05,-282.24 831.05,-342.24 1202.05,-342.24 1202.05,-282.24 831.05,-282.24"/>
<polygon fill="none" stroke="#29235c" points="831.05,-282.24 831.05,-342.24 1202.05,-342.24 1202.05,-282.24 831.05,-282.24"/>
<text text-anchor="start" x="842.05" y="-302.44" font-family="Helvetica,sans-Serif" font-size="32.00" fill="#29235c">Genre &#160;&#160;&#160;</text>
<text text-anchor="start" x="1027.49" y="-303.44" font-family="Helvetica,sans-Serif" font-style="italic" font-size="32.00" fill="#29235c">varchar(50)</text>
<polygon fill="#e7e2dd" stroke="transparent" points="831.05,-222.24 831.05,-282.24 1202.05,-282.24 1202.05,-222.24 831.05,-222.24"/>
<polygon fill="none" stroke="#29235c" points="831.05,-222.24 831.05,-282.24 1202.05,-282.24 1202.05,-222.24 831.05,-222.24"/>
<text text-anchor="start" x="842.05" y="-242.44" font-family="Helvetica,sans-Serif" font-size="32.00" fill="#29235c">PublicationYear &#160;&#160;&#160;</text>
<text text-anchor="start" x="1157.27" y="-243.44" font-family="Helvetica,sans-Serif" font-style="italic" font-size="32.00" fill="#29235c">int</text>
<polygon fill="#e7e2dd" stroke="transparent" points="831.05,-162.24 831.05,-222.24 1202.05,-222.24 1202.05,-162.24 831.05,-162.24"/>
<polygon fill="none" stroke="#29235c" points="831.05,-162.24 831.05,-222.24 1202.05,-222.24 1202.05,-162.24 831.05,-162.24"/>
<text text-anchor="start" x="842.05" y="-182.44" font-family="Helvetica,sans-Serif" font-size="32.00" fill="#29235c">AvailableCopies &#160;&#160;&#160;</text>
<text text-anchor="start" x="1157.27" y="-183.44" font-family="Helvetica,sans-Serif" font-style="italic" font-size="32.00" fill="#29235c">int</text>
<polygon fill="#e7e2dd" stroke="transparent" points="831.05,-102.24 831.05,-162.24 1202.05,-162.24 1202.05,-102.24 831.05,-102.24"/>
<polygon fill="none" stroke="#29235c" points="831.05,-102.24 831.05,-162.24 1202.05,-162.24 1202.05,-102.24 831.05,-102.24"/>
<text text-anchor="start" x="842.05" y="-122.44" font-family="Helvetica,sans-Serif" font-size="32.00" fill="#29235c">CategoryID &#160;&#160;&#160;</text>
<text text-anchor="start" x="1157.27" y="-123.44" font-family="Helvetica,sans-Serif" font-style="italic" font-size="32.00" fill="#29235c">int</text>
<polygon fill="none" stroke="#29235c" stroke-width="2" points="829.55,-101.24 829.55,-583.24 1202.55,-583.24 1202.55,-101.24 829.55,-101.24"/>
</g>
<!-- BookCategories&#45;&gt;Books -->
<!-- BookCategories&#45;&gt;Books -->
<g id="edge2" class="edge">
<title>BookCategories:e&#45;&gt;Books:w</title>
<path fill="none" stroke="#29235c" stroke-width="3" d="M576,-492.24C768.38,-492.24 638.96,-144.78 820.03,-132.57"/>
<polygon fill="#29235c" stroke="#29235c" stroke-width="3" points="820.17,-136.07 830.05,-132.24 819.94,-129.07 820.17,-136.07"/>
<text text-anchor="middle" x="836.27" y="-103.44" font-family="Helvetica,sans-Serif" font-size="32.00" fill="#29235c">*</text>
<text text-anchor="middle" x="584.89" y="-501.84" font-family="Helvetica,sans-Serif" font-size="32.00" fill="#29235c">1</text>
</g>
<!-- Loans -->
<g id="Loans" class="node">
<title>Loans</title>
<ellipse fill="none" stroke="black" stroke-width="0" cx="1638.95" cy="-960.24" rx="212.68" ry="257.27"/>
<polygon fill="#1d71b8" stroke="transparent" points="1490.95,-1080.24 1490.95,-1140.24 1787.95,-1140.24 1787.95,-1080.24 1490.95,-1080.24"/>
<polygon fill="none" stroke="#29235c" points="1490.95,-1080.24 1490.95,-1140.24 1787.95,-1140.24 1787.95,-1080.24 1490.95,-1080.24"/>
<text text-anchor="start" x="1533.62" y="-1101.44" font-family="Helvetica,sans-Serif" font-weight="bold" font-size="32.00" fill="#ffffff"> &#160;&#160;&#160;&#160;&#160;&#160;Loans &#160;&#160;&#160;&#160;&#160;&#160;</text>
<polygon fill="#e7e2dd" stroke="transparent" points="1490.95,-1020.24 1490.95,-1080.24 1787.95,-1080.24 1787.95,-1020.24 1490.95,-1020.24"/>
<polygon fill="none" stroke="#29235c" points="1490.95,-1020.24 1490.95,-1080.24 1787.95,-1080.24 1787.95,-1020.24 1490.95,-1020.24"/>
<text text-anchor="start" x="1501.95" y="-1041.44" font-family="Helvetica,sans-Serif" font-weight="bold" font-size="32.00" fill="#29235c">LoanID</text>
<text text-anchor="start" x="1605.1" y="-1041.44" font-family="Helvetica,sans-Serif" font-size="32.00" fill="#29235c"> &#160;&#160;&#160;</text>
<text text-anchor="start" x="1743.17" y="-1041.44" font-family="Helvetica,sans-Serif" font-style="italic" font-size="32.00" fill="#29235c">int</text>
<polygon fill="#e7e2dd" stroke="transparent" points="1490.95,-960.24 1490.95,-1020.24 1787.95,-1020.24 1787.95,-960.24 1490.95,-960.24"/>
<polygon fill="none" stroke="#29235c" points="1490.95,-960.24 1490.95,-1020.24 1787.95,-1020.24 1787.95,-960.24 1490.95,-960.24"/>
<text text-anchor="start" x="1501.95" y="-980.44" font-family="Helvetica,sans-Serif" font-size="32.00" fill="#29235c">UserID &#160;&#160;&#160;</text>
<text text-anchor="start" x="1743.17" y="-981.44" font-family="Helvetica,sans-Serif" font-style="italic" font-size="32.00" fill="#29235c">int</text>
<polygon fill="#e7e2dd" stroke="transparent" points="1490.95,-900.24 1490.95,-960.24 1787.95,-960.24 1787.95,-900.24 1490.95,-900.24"/>
<polygon fill="none" stroke="#29235c" points="1490.95,-900.24 1490.95,-960.24 1787.95,-960.24 1787.95,-900.24 1490.95,-900.24"/>
<text text-anchor="start" x="1501.95" y="-920.44" font-family="Helvetica,sans-Serif" font-size="32.00" fill="#29235c">BookID &#160;&#160;&#160;</text>
<text text-anchor="start" x="1743.17" y="-921.44" font-family="Helvetica,sans-Serif" font-style="italic" font-size="32.00" fill="#29235c">int</text>
<polygon fill="#e7e2dd" stroke="transparent" points="1490.95,-840.24 1490.95,-900.24 1787.95,-900.24 1787.95,-840.24 1490.95,-840.24"/>
<polygon fill="none" stroke="#29235c" points="1490.95,-840.24 1490.95,-900.24 1787.95,-900.24 1787.95,-840.24 1490.95,-840.24"/>
<text text-anchor="start" x="1501.8" y="-860.44" font-family="Helvetica,sans-Serif" font-size="32.00" fill="#29235c">LoanDate &#160;&#160;&#160;</text>
<text text-anchor="start" x="1675.77" y="-861.44" font-family="Helvetica,sans-Serif" font-style="italic" font-size="32.00" fill="#29235c">date</text>
<text text-anchor="start" x="1738.03" y="-861.44" font-family="Helvetica,sans-Serif" font-size="32.00" fill="#29235c"> </text>
<text text-anchor="start" x="1746.93" y="-861.44" font-family="Helvetica,sans-Serif" font-weight="bold" font-size="32.00" fill="#29235c">(!)</text>
<polygon fill="#e7e2dd" stroke="transparent" points="1490.95,-780.24 1490.95,-840.24 1787.95,-840.24 1787.95,-780.24 1490.95,-780.24"/>
<polygon fill="none" stroke="#29235c" points="1490.95,-780.24 1490.95,-840.24 1787.95,-840.24 1787.95,-780.24 1490.95,-780.24"/>
<text text-anchor="start" x="1501.95" y="-800.44" font-family="Helvetica,sans-Serif" font-size="32.00" fill="#29235c">ReturnDate &#160;&#160;&#160;</text>
<text text-anchor="start" x="1714.69" y="-801.44" font-family="Helvetica,sans-Serif" font-style="italic" font-size="32.00" fill="#29235c">date</text>
<polygon fill="none" stroke="#29235c" stroke-width="2" points="1489.45,-779.24 1489.45,-1141.24 1788.45,-1141.24 1788.45,-779.24 1489.45,-779.24"/>
</g>
<!-- Books&#45;&gt;Loans -->
<!-- Books&#45;&gt;Loans -->
<g id="edge6" class="edge">
<title>Books:e&#45;&gt;Loans:w</title>
<path fill="none" stroke="#29235c" stroke-width="3" d="M1203.05,-492.24C1432.24,-492.24 1262.55,-917.08 1479.66,-929.94"/>
<polygon fill="#29235c" stroke="#29235c" stroke-width="3" points="1479.85,-933.45 1489.95,-930.24 1480.05,-926.45 1479.85,-933.45"/>
<text text-anchor="middle" x="1496.17" y="-939.84" font-family="Helvetica,sans-Serif" font-size="32.00" fill="#29235c">*</text>
<text text-anchor="middle" x="1194.16" y="-501.84" font-family="Helvetica,sans-Serif" font-size="32.00" fill="#29235c">1</text>
</g>
<!-- Reservations -->
<g id="Reservations" class="node">
<title>Reservations</title>
<ellipse fill="none" stroke="black" stroke-width="0" cx="1638.95" cy="-427.24" rx="282.69" ry="257.27"/>
<polygon fill="#1d71b8" stroke="transparent" points="1440.95,-547.24 1440.95,-607.24 1836.95,-607.24 1836.95,-547.24 1440.95,-547.24"/>
<polygon fill="none" stroke="#29235c" points="1440.95,-547.24 1440.95,-607.24 1836.95,-607.24 1836.95,-547.24 1440.95,-547.24"/>
<text text-anchor="start" x="1483.35" y="-568.44" font-family="Helvetica,sans-Serif" font-weight="bold" font-size="32.00" fill="#ffffff"> &#160;&#160;&#160;&#160;&#160;&#160;Reservations &#160;&#160;&#160;&#160;&#160;&#160;</text>
<polygon fill="#e7e2dd" stroke="transparent" points="1440.95,-487.24 1440.95,-547.24 1836.95,-547.24 1836.95,-487.24 1440.95,-487.24"/>
<polygon fill="none" stroke="#29235c" points="1440.95,-487.24 1440.95,-547.24 1836.95,-547.24 1836.95,-487.24 1440.95,-487.24"/>
<text text-anchor="start" x="1451.95" y="-508.44" font-family="Helvetica,sans-Serif" font-weight="bold" font-size="32.00" fill="#29235c">ReservationID</text>
<text text-anchor="start" x="1654.63" y="-508.44" font-family="Helvetica,sans-Serif" font-size="32.00" fill="#29235c"> &#160;&#160;&#160;</text>
<text text-anchor="start" x="1792.17" y="-508.44" font-family="Helvetica,sans-Serif" font-style="italic" font-size="32.00" fill="#29235c">int</text>
<polygon fill="#e7e2dd" stroke="transparent" points="1440.95,-427.24 1440.95,-487.24 1836.95,-487.24 1836.95,-427.24 1440.95,-427.24"/>
<polygon fill="none" stroke="#29235c" points="1440.95,-427.24 1440.95,-487.24 1836.95,-487.24 1836.95,-427.24 1440.95,-427.24"/>
<text text-anchor="start" x="1451.95" y="-447.44" font-family="Helvetica,sans-Serif" font-size="32.00" fill="#29235c">UserID &#160;&#160;&#160;</text>
<text text-anchor="start" x="1792.17" y="-448.44" font-family="Helvetica,sans-Serif" font-style="italic" font-size="32.00" fill="#29235c">int</text>
<polygon fill="#e7e2dd" stroke="transparent" points="1440.95,-367.24 1440.95,-427.24 1836.95,-427.24 1836.95,-367.24 1440.95,-367.24"/>
<polygon fill="none" stroke="#29235c" points="1440.95,-367.24 1440.95,-427.24 1836.95,-427.24 1836.95,-367.24 1440.95,-367.24"/>
<text text-anchor="start" x="1451.95" y="-387.44" font-family="Helvetica,sans-Serif" font-size="32.00" fill="#29235c">BookID &#160;&#160;&#160;</text>
<text text-anchor="start" x="1792.17" y="-388.44" font-family="Helvetica,sans-Serif" font-style="italic" font-size="32.00" fill="#29235c">int</text>
<polygon fill="#e7e2dd" stroke="transparent" points="1440.95,-307.24 1440.95,-367.24 1836.95,-367.24 1836.95,-307.24 1440.95,-307.24"/>
<polygon fill="none" stroke="#29235c" points="1440.95,-307.24 1440.95,-367.24 1836.95,-367.24 1836.95,-307.24 1440.95,-307.24"/>
<text text-anchor="start" x="1451.53" y="-327.44" font-family="Helvetica,sans-Serif" font-size="32.00" fill="#29235c">ReservationDate &#160;&#160;&#160;</text>
<text text-anchor="start" x="1724.77" y="-328.44" font-family="Helvetica,sans-Serif" font-style="italic" font-size="32.00" fill="#29235c">date</text>
<text text-anchor="start" x="1787.03" y="-328.44" font-family="Helvetica,sans-Serif" font-size="32.00" fill="#29235c"> </text>
<text text-anchor="start" x="1795.93" y="-328.44" font-family="Helvetica,sans-Serif" font-weight="bold" font-size="32.00" fill="#29235c">(!)</text>
<polygon fill="#e7e2dd" stroke="transparent" points="1440.95,-247.24 1440.95,-307.24 1836.95,-307.24 1836.95,-247.24 1440.95,-247.24"/>
<polygon fill="none" stroke="#29235c" points="1440.95,-247.24 1440.95,-307.24 1836.95,-307.24 1836.95,-247.24 1440.95,-247.24"/>
<text text-anchor="start" x="1451.95" y="-267.44" font-family="Helvetica,sans-Serif" font-size="32.00" fill="#29235c">Status &#160;&#160;&#160;</text>
<text text-anchor="start" x="1662.39" y="-268.44" font-family="Helvetica,sans-Serif" font-style="italic" font-size="32.00" fill="#29235c">varchar(20)</text>
<polygon fill="none" stroke="#29235c" stroke-width="2" points="1439.95,-246.24 1439.95,-608.24 1837.95,-608.24 1837.95,-246.24 1439.95,-246.24"/>
</g>
<!-- Books&#45;&gt;Reservations -->
<!-- Books&#45;&gt;Reservations -->
<g id="edge10" class="edge">
<title>Books:e&#45;&gt;Reservations:w</title>
<path fill="none" stroke="#29235c" stroke-width="3" d="M1203.05,-492.24C1313.05,-492.24 1325.81,-402.9 1429.92,-397.5"/>
<polygon fill="#29235c" stroke="#29235c" stroke-width="3" points="1430.04,-400.99 1439.95,-397.24 1429.86,-394 1430.04,-400.99"/>
<text text-anchor="middle" x="1446.17" y="-368.44" font-family="Helvetica,sans-Serif" font-size="32.00" fill="#29235c">*</text>
<text text-anchor="middle" x="1211.94" y="-501.84" font-family="Helvetica,sans-Serif" font-size="32.00" fill="#29235c">1</text>
</g>
<!-- Users -->
<g id="Users" class="node">
<title>Users</title>
<ellipse fill="none" stroke="black" stroke-width="0" cx="1016.05" cy="-960.24" rx="304.11" ry="257.27"/>
<polygon fill="#1d71b8" stroke="transparent" points="803.05,-1080.24 803.05,-1140.24 1229.05,-1140.24 1229.05,-1080.24 803.05,-1080.24"/>
<polygon fill="none" stroke="#29235c" points="803.05,-1080.24 803.05,-1140.24 1229.05,-1140.24 1229.05,-1080.24 803.05,-1080.24"/>
<text text-anchor="start" x="912.03" y="-1101.44" font-family="Helvetica,sans-Serif" font-weight="bold" font-size="32.00" fill="#ffffff"> &#160;&#160;&#160;&#160;&#160;&#160;Users &#160;&#160;&#160;&#160;&#160;&#160;</text>
<polygon fill="#e7e2dd" stroke="transparent" points="803.05,-1020.24 803.05,-1080.24 1229.05,-1080.24 1229.05,-1020.24 803.05,-1020.24"/>
<polygon fill="none" stroke="#29235c" points="803.05,-1020.24 803.05,-1080.24 1229.05,-1080.24 1229.05,-1020.24 803.05,-1020.24"/>
<text text-anchor="start" x="814.05" y="-1041.44" font-family="Helvetica,sans-Serif" font-weight="bold" font-size="32.00" fill="#29235c">UserID</text>
<text text-anchor="start" x="913.59" y="-1041.44" font-family="Helvetica,sans-Serif" font-size="32.00" fill="#29235c"> &#160;&#160;&#160;</text>
<text text-anchor="start" x="1184.27" y="-1041.44" font-family="Helvetica,sans-Serif" font-style="italic" font-size="32.00" fill="#29235c">int</text>
<polygon fill="#e7e2dd" stroke="transparent" points="803.05,-960.24 803.05,-1020.24 1229.05,-1020.24 1229.05,-960.24 803.05,-960.24"/>
<polygon fill="none" stroke="#29235c" points="803.05,-960.24 803.05,-1020.24 1229.05,-1020.24 1229.05,-960.24 803.05,-960.24"/>
<text text-anchor="start" x="814.05" y="-980.44" font-family="Helvetica,sans-Serif" font-size="32.00" fill="#29235c">FirstName &#160;&#160;&#160;</text>
<text text-anchor="start" x="1015.4" y="-981.44" font-family="Helvetica,sans-Serif" font-style="italic" font-size="32.00" fill="#29235c">varchar(50)</text>
<text text-anchor="start" x="1178.96" y="-981.44" font-family="Helvetica,sans-Serif" font-size="32.00" fill="#29235c"> </text>
<text text-anchor="start" x="1187.85" y="-981.44" font-family="Helvetica,sans-Serif" font-weight="bold" font-size="32.00" fill="#29235c">(!)</text>
<polygon fill="#e7e2dd" stroke="transparent" points="803.05,-900.24 803.05,-960.24 1229.05,-960.24 1229.05,-900.24 803.05,-900.24"/>
<polygon fill="none" stroke="#29235c" points="803.05,-900.24 803.05,-960.24 1229.05,-960.24 1229.05,-900.24 803.05,-900.24"/>
<text text-anchor="start" x="814.05" y="-920.44" font-family="Helvetica,sans-Serif" font-size="32.00" fill="#29235c">LastName &#160;&#160;&#160;</text>
<text text-anchor="start" x="1015.4" y="-921.44" font-family="Helvetica,sans-Serif" font-style="italic" font-size="32.00" fill="#29235c">varchar(50)</text>
<text text-anchor="start" x="1178.96" y="-921.44" font-family="Helvetica,sans-Serif" font-size="32.00" fill="#29235c"> </text>
<text text-anchor="start" x="1187.85" y="-921.44" font-family="Helvetica,sans-Serif" font-weight="bold" font-size="32.00" fill="#29235c">(!)</text>
<polygon fill="#e7e2dd" stroke="transparent" points="803.05,-840.24 803.05,-900.24 1229.05,-900.24 1229.05,-840.24 803.05,-840.24"/>
<polygon fill="none" stroke="#29235c" points="803.05,-840.24 803.05,-900.24 1229.05,-900.24 1229.05,-840.24 803.05,-840.24"/>
<text text-anchor="start" x="814.05" y="-860.44" font-family="Helvetica,sans-Serif" font-size="32.00" fill="#29235c">Email &#160;&#160;&#160;</text>
<text text-anchor="start" x="1036.71" y="-861.44" font-family="Helvetica,sans-Serif" font-style="italic" font-size="32.00" fill="#29235c">varchar(100)</text>
<polygon fill="#e7e2dd" stroke="transparent" points="803.05,-780.24 803.05,-840.24 1229.05,-840.24 1229.05,-780.24 803.05,-780.24"/>
<polygon fill="none" stroke="#29235c" points="803.05,-780.24 803.05,-840.24 1229.05,-840.24 1229.05,-780.24 803.05,-780.24"/>
<text text-anchor="start" x="813.63" y="-800.44" font-family="Helvetica,sans-Serif" font-size="32.00" fill="#29235c">PhoneNumber &#160;&#160;&#160;</text>
<text text-anchor="start" x="1054.77" y="-801.44" font-family="Helvetica,sans-Serif" font-style="italic" font-size="32.00" fill="#29235c">varchar(15)</text>
<polygon fill="none" stroke="#29235c" stroke-width="2" points="802.05,-779.24 802.05,-1141.24 1230.05,-1141.24 1230.05,-779.24 802.05,-779.24"/>
</g>
<!-- Users&#45;&gt;Loans -->
<!-- Users&#45;&gt;Loans -->
<g id="edge4" class="edge">
<title>Users:e&#45;&gt;Loans:w</title>
<path fill="none" stroke="#29235c" stroke-width="3" d="M1230.05,-1050.24C1345.13,-1050.24 1369.98,-993.7 1479.77,-990.39"/>
<polygon fill="#29235c" stroke="#29235c" stroke-width="3" points="1480,-993.89 1489.95,-990.24 1479.9,-986.89 1480,-993.89"/>
<text text-anchor="middle" x="1496.17" y="-999.84" font-family="Helvetica,sans-Serif" font-size="32.00" fill="#29235c">*</text>
<text text-anchor="middle" x="1221.16" y="-1059.84" font-family="Helvetica,sans-Serif" font-size="32.00" fill="#29235c">1</text>
</g>
<!-- Users&#45;&gt;Reservations -->
<!-- Users&#45;&gt;Reservations -->
<g id="edge8" class="edge">
<title>Users:e&#45;&gt;Reservations:w</title>
<path fill="none" stroke="#29235c" stroke-width="3" d="M1230.05,-1050.24C1506.08,-1050.24 1169.14,-472.2 1429.6,-457.52"/>
<polygon fill="#29235c" stroke="#29235c" stroke-width="3" points="1430.05,-461.01 1439.95,-457.24 1429.86,-454.02 1430.05,-461.01"/>
<text text-anchor="middle" x="1446.17" y="-428.44" font-family="Helvetica,sans-Serif" font-size="32.00" fill="#29235c">*</text>
<text text-anchor="middle" x="1238.94" y="-1059.84" font-family="Helvetica,sans-Serif" font-size="32.00" fill="#29235c">1</text>
</g>
<!-- Staff -->
<g id="Staff" class="node">
<title>Staff</title>
<ellipse fill="none" stroke="black" stroke-width="0" cx="338" cy="-910.24" rx="290.74" ry="257.27"/>
<polygon fill="#1d71b8" stroke="transparent" points="135,-1030.24 135,-1090.24 542,-1090.24 542,-1030.24 135,-1030.24"/>
<polygon fill="none" stroke="#29235c" points="135,-1030.24 135,-1090.24 542,-1090.24 542,-1030.24 135,-1030.24"/>
<text text-anchor="start" x="243.34" y="-1051.44" font-family="Helvetica,sans-Serif" font-weight="bold" font-size="32.00" fill="#ffffff"> &#160;&#160;&#160;&#160;&#160;&#160;Staff &#160;&#160;&#160;&#160;&#160;&#160;</text>
<polygon fill="#e7e2dd" stroke="transparent" points="135,-970.24 135,-1030.24 542,-1030.24 542,-970.24 135,-970.24"/>
<polygon fill="none" stroke="#29235c" points="135,-970.24 135,-1030.24 542,-1030.24 542,-970.24 135,-970.24"/>
<text text-anchor="start" x="146" y="-991.44" font-family="Helvetica,sans-Serif" font-weight="bold" font-size="32.00" fill="#29235c">StaffID</text>
<text text-anchor="start" x="243.8" y="-991.44" font-family="Helvetica,sans-Serif" font-size="32.00" fill="#29235c"> &#160;&#160;&#160;</text>
<text text-anchor="start" x="497.21" y="-991.44" font-family="Helvetica,sans-Serif" font-style="italic" font-size="32.00" fill="#29235c">int</text>
<polygon fill="#e7e2dd" stroke="transparent" points="135,-910.24 135,-970.24 542,-970.24 542,-910.24 135,-910.24"/>
<polygon fill="none" stroke="#29235c" points="135,-910.24 135,-970.24 542,-970.24 542,-910.24 135,-910.24"/>
<text text-anchor="start" x="145.95" y="-930.44" font-family="Helvetica,sans-Serif" font-size="32.00" fill="#29235c">FirstName &#160;&#160;&#160;</text>
<text text-anchor="start" x="328.67" y="-931.44" font-family="Helvetica,sans-Serif" font-style="italic" font-size="32.00" fill="#29235c">varchar(50)</text>
<text text-anchor="start" x="492.23" y="-931.44" font-family="Helvetica,sans-Serif" font-size="32.00" fill="#29235c"> </text>
<text text-anchor="start" x="501.12" y="-931.44" font-family="Helvetica,sans-Serif" font-weight="bold" font-size="32.00" fill="#29235c">(!)</text>
<polygon fill="#e7e2dd" stroke="transparent" points="135,-850.24 135,-910.24 542,-910.24 542,-850.24 135,-850.24"/>
<polygon fill="none" stroke="#29235c" points="135,-850.24 135,-910.24 542,-910.24 542,-850.24 135,-850.24"/>
<text text-anchor="start" x="146" y="-870.44" font-family="Helvetica,sans-Serif" font-size="32.00" fill="#29235c">LastName &#160;&#160;&#160;</text>
<text text-anchor="start" x="328.35" y="-871.44" font-family="Helvetica,sans-Serif" font-style="italic" font-size="32.00" fill="#29235c">varchar(50)</text>
<text text-anchor="start" x="491.91" y="-871.44" font-family="Helvetica,sans-Serif" font-size="32.00" fill="#29235c"> </text>
<text text-anchor="start" x="500.8" y="-871.44" font-family="Helvetica,sans-Serif" font-weight="bold" font-size="32.00" fill="#29235c">(!)</text>
<polygon fill="#e7e2dd" stroke="transparent" points="135,-790.24 135,-850.24 542,-850.24 542,-790.24 135,-790.24"/>
<polygon fill="none" stroke="#29235c" points="135,-790.24 135,-850.24 542,-850.24 542,-790.24 135,-790.24"/>
<text text-anchor="start" x="146" y="-810.44" font-family="Helvetica,sans-Serif" font-size="32.00" fill="#29235c">Role &#160;&#160;&#160;</text>
<text text-anchor="start" x="367.44" y="-811.44" font-family="Helvetica,sans-Serif" font-style="italic" font-size="32.00" fill="#29235c">varchar(50)</text>
<polygon fill="#e7e2dd" stroke="transparent" points="135,-730.24 135,-790.24 542,-790.24 542,-730.24 135,-730.24"/>
<polygon fill="none" stroke="#29235c" points="135,-730.24 135,-790.24 542,-790.24 542,-730.24 135,-730.24"/>
<text text-anchor="start" x="146" y="-750.44" font-family="Helvetica,sans-Serif" font-size="32.00" fill="#29235c">Email &#160;&#160;&#160;</text>
<text text-anchor="start" x="349.65" y="-751.44" font-family="Helvetica,sans-Serif" font-style="italic" font-size="32.00" fill="#29235c">varchar(100)</text>
<polygon fill="none" stroke="#29235c" stroke-width="2" points="133.5,-729.24 133.5,-1091.24 542.5,-1091.24 542.5,-729.24 133.5,-729.24"/>
</g>
</g>
</svg>

